<svg viewBox="0 0 600 560" xmlns="http://www.w3.org/2000/svg" role="img" aria-label="Rajwadi Kangan illustration">
  <defs>
    <radialGradient id="glow-kangan-bridal-opulent" cx="50%" cy="42%" r="65%">
      <stop offset="0%" stop-color="#B16AA2" stop-opacity="0.55"/>
      <stop offset="60%" stop-color="#B16AA2" stop-opacity="0.12"/>
      <stop offset="100%" stop-color="#B16AA2" stop-opacity="0"/>
    </radialGradient>
    <linearGradient id="band-kangan-bridal-opulent" x1="0%" y1="0%" x2="100%" y2="100%">
      <stop offset="0%" stop-color="#F4E3A2"/><stop offset="40%" stop-color="#D4AF37"/><stop offset="100%" stop-color="#7a5a1c"/>
    </linearGradient>
    <linearGradient id="sheen-kangan-bridal-opulent" x1="20%" y1="0%" x2="80%" y2="100%">
      <stop offset="0%" stop-color="#F4E3A2" stop-opacity="0.9"/>
      <stop offset="45%" stop-color="#F4E3A2" stop-opacity="0.05"/>
      <stop offset="100%" stop-color="#F4E3A2" stop-opacity="0"/>
    </linearGradient>
  </defs>
  <rect width="600" height="560" fill="none"/>
  <circle cx="300" cy="280" r="260" fill="url(#glow-kangan-bridal-opulent)"/>
  <circle cx="300" cy="280" r="204" fill="none" stroke="#D4AF37" stroke-width="1" opacity="0.35"/>
  <circle cx="300" cy="280" r="190" fill="none" stroke="url(#band-kangan-bridal-opulent)" stroke-width="52"/>
  <circle cx="300" cy="280" r="190" fill="none" stroke="url(#sheen-kangan-bridal-opulent)" stroke-width="52" stroke-dasharray="120 620" stroke-linecap="round"/>
  <circle cx="300" cy="280" r="126" fill="none" stroke="#D4AF37" stroke-width="1" opacity="0.3"/>
  <circle cx="464.0" cy="280.0" r="9.0" fill="#733960" opacity="0.95"/>
<circle cx="461.3" cy="277.3" r="2.5" fill="#F8F7F3" opacity="0.55"/>
<circle cx="454.1" cy="336.1" r="7.4" fill="#0D4B3C" opacity="0.95"/>
<circle cx="451.9" cy="333.9" r="2.1" fill="#F8F7F3" opacity="0.55"/>
<circle cx="425.6" cy="385.4" r="9.0" fill="#B16AA2" opacity="0.95"/>
<circle cx="422.9" cy="382.7" r="2.5" fill="#F8F7F3" opacity="0.55"/>
<circle cx="382.0" cy="422.0" r="7.4" fill="#D4AF37" opacity="0.95"/>
<circle cx="379.8" cy="419.8" r="2.1" fill="#F8F7F3" opacity="0.55"/>
<circle cx="328.5" cy="441.5" r="9.0" fill="#733960" opacity="0.95"/>
<circle cx="325.8" cy="438.8" r="2.5" fill="#F8F7F3" opacity="0.55"/>
<circle cx="271.5" cy="441.5" r="7.4" fill="#0D4B3C" opacity="0.95"/>
<circle cx="269.3" cy="439.3" r="2.1" fill="#F8F7F3" opacity="0.55"/>
<circle cx="218.0" cy="422.0" r="9.0" fill="#B16AA2" opacity="0.95"/>
<circle cx="215.3" cy="419.3" r="2.5" fill="#F8F7F3" opacity="0.55"/>
<circle cx="174.4" cy="385.4" r="7.4" fill="#D4AF37" opacity="0.95"/>
<circle cx="172.2" cy="383.2" r="2.1" fill="#F8F7F3" opacity="0.55"/>
<circle cx="145.9" cy="336.1" r="9.0" fill="#733960" opacity="0.95"/>
<circle cx="143.2" cy="333.4" r="2.5" fill="#F8F7F3" opacity="0.55"/>
<circle cx="136.0" cy="280.0" r="7.4" fill="#0D4B3C" opacity="0.95"/>
<circle cx="133.8" cy="277.8" r="2.1" fill="#F8F7F3" opacity="0.55"/>
<circle cx="145.9" cy="223.9" r="9.0" fill="#B16AA2" opacity="0.95"/>
<circle cx="143.2" cy="221.2" r="2.5" fill="#F8F7F3" opacity="0.55"/>
<circle cx="174.4" cy="174.6" r="7.4" fill="#D4AF37" opacity="0.95"/>
<circle cx="172.2" cy="172.4" r="2.1" fill="#F8F7F3" opacity="0.55"/>
<circle cx="218.0" cy="138.0" r="9.0" fill="#733960" opacity="0.95"/>
<circle cx="215.3" cy="135.3" r="2.5" fill="#F8F7F3" opacity="0.55"/>
<circle cx="271.5" cy="118.5" r="7.4" fill="#0D4B3C" opacity="0.95"/>
<circle cx="269.3" cy="116.3" r="2.1" fill="#F8F7F3" opacity="0.55"/>
<circle cx="328.5" cy="118.5" r="9.0" fill="#B16AA2" opacity="0.95"/>
<circle cx="325.8" cy="115.8" r="2.5" fill="#F8F7F3" opacity="0.55"/>
<circle cx="382.0" cy="138.0" r="7.4" fill="#D4AF37" opacity="0.95"/>
<circle cx="379.8" cy="135.8" r="2.1" fill="#F8F7F3" opacity="0.55"/>
<circle cx="425.6" cy="174.6" r="9.0" fill="#733960" opacity="0.95"/>
<circle cx="422.9" cy="171.9" r="2.5" fill="#F8F7F3" opacity="0.55"/>
<circle cx="454.1" cy="223.9" r="7.4" fill="#0D4B3C" opacity="0.95"/>
<circle cx="451.9" cy="221.7" r="2.1" fill="#F8F7F3" opacity="0.55"/>
  <line x1="244.2" y1="399.6" x2="244.2" y2="434.1" stroke="#D4AF37" stroke-width="1.4" opacity="0.7"/>
<circle cx="244.2" cy="440.1" r="7.5" fill="#733960"/>
<circle cx="242.2" cy="437.1" r="2.4" fill="#F8F7F3" opacity="0.7"/>
<line x1="271.4" y1="408.9" x2="271.4" y2="466.2" stroke="#D4AF37" stroke-width="1.4" opacity="0.7"/>
<circle cx="271.4" cy="472.2" r="7.5" fill="#0D4B3C"/>
<circle cx="269.4" cy="469.2" r="2.4" fill="#F8F7F3" opacity="0.7"/>
<line x1="300.0" y1="412.0" x2="300.0" y2="440.6" stroke="#D4AF37" stroke-width="1.4" opacity="0.7"/>
<circle cx="300.0" cy="446.6" r="7.5" fill="#B16AA2"/>
<circle cx="298.0" cy="443.6" r="2.4" fill="#F8F7F3" opacity="0.7"/>
<line x1="328.6" y1="408.9" x2="328.6" y2="422.1" stroke="#D4AF37" stroke-width="1.4" opacity="0.7"/>
<circle cx="328.6" cy="428.1" r="7.5" fill="#D4AF37"/>
<circle cx="326.6" cy="425.1" r="2.4" fill="#F8F7F3" opacity="0.7"/>
<line x1="355.8" y1="399.6" x2="355.8" y2="445.5" stroke="#D4AF37" stroke-width="1.4" opacity="0.7"/>
<circle cx="355.8" cy="451.5" r="7.5" fill="#733960"/>
<circle cx="353.8" cy="448.5" r="2.4" fill="#F8F7F3" opacity="0.7"/>
</svg>