<svg viewBox="0 0 24 24" xmlns="http://www.w3.org/2000/svg" fill="currentColor" aria-hidden="true"><path d="M17.472 14.382c-.297-.149-1.758-.867-2.03-.967-.273-.099-.471-.148-.67.15-.197.297-.767.966-.94 1.164-.173.199-.347.223-.644.075-.297-.15-1.255-.463-2.39-1.475-.883-.788-1.48-1.761-1.653-2.059-.173-.297-.018-.458.13-.606.134-.133.298-.347.446-.52.149-.174.198-.298.298-.497.099-.198.05-.371-.025-.52-.075-.149-.669-1.612-.916-2.207-.242-.579-.487-.5-.669-.51-.173-.008-.371-.01-.57-.01-.198 0-.52.074-.792.372-.272.297-1.04 1.016-1.04 2.479 0 1.462 1.065 2.875 1.213 3.074.149.198 2.096 3.2 5.077 4.487.709.306 1.262.489 1.694.625.712.227 1.36.195 1.872.118.571-.085 1.758-.719 2.006-1.413.248-.694.248-1.289.173-1.413-.074-.124-.272-.198-.57-.347z"/><path d="M12.004 2C6.486 2 2.01 6.476 2.01 11.994c0 1.99.523 3.856 1.516 5.507L2 22l4.638-1.489a9.96 9.96 0 0 0 5.366 1.552h.004c5.518 0 9.993-4.476 9.993-9.994C21.996 6.476 17.522 2 12.004 2zm0 18.183h-.003a8.19 8.19 0 0 1-4.174-1.145l-.3-.178-3.104.996 1.02-3.024-.196-.31a8.176 8.176 0 0 1-1.253-4.34c0-4.51 3.674-8.183 8.194-8.183 2.19 0 4.249.853 5.796 2.401a8.132 8.132 0 0 1 2.398 5.79c0 4.511-3.674 8.184-8.192 8.184z"/></svg>
